# xmcd CD database file
#
# Track frame offsets:
#	150
#	10805
#	22036
#	35878
#	51225
#	65275
#	78686
#	92806
#	107028
#	121209
#	132926
#	155430
#	171108
#	181849
#	194475
#	204456
#	223014
#	236462
#	251472
#
# Disc length: 3573 seconds
#
# Revision: 0
# Processed by: cddbd v1.5.2PL0 Copyright (c) Steve Scherf et al.
# Submitted via: CDex 1.70beta2
#
DISCID=0a0df313
DTITLE=Louis Armstrong - All time greatest hits
DYEAR=1900
DGENRE=Jazz
TTITLE0=What a wonderful world
TTITLE1=Hello Dolly
TTITLE2=Sitting in the sun
TTITLE3=Mack the knife
TTITLE4=A kiss to build a dream
TTITLE5=It takes two to tango
TTITLE6=That lucky old sun
TTITLE7=Kiss of fire
TTITLE8=I get ideas
TTITLE9=Gone fishing
TTITLE10=Skookiaan
TTITLE11=Le vie en rose
TTITLE12=The dummy song
TTITLE13=Chloe
TTITLE14=I still get jealous
TTITLE15=When you're smiling
TTITLE16=Blueberry Hill
TTITLE17=When it's sleepy time down south
TTITLE18=Go down Moses
EXTD=
EXTT0=
EXTT1=
EXTT2=
EXTT3=
EXTT4=
EXTT5=
EXTT6=
EXTT7=
EXTT8=
EXTT9=
EXTT10=
EXTT11=
EXTT12=
EXTT13=
EXTT14=
EXTT15=
EXTT16=
EXTT17=
EXTT18=
PLAYORDER=
